<?xml version="1.0" encoding="iso-8859-1"?>
<!-- Generator: Adobe Illustrator 19.0.0, SVG Export Plug-In . SVG Version: 6.00 Build 0)  -->
<svg version="1.1" id="Layer_1" xmlns="http://www.w3.org/2000/svg" xmlns:xlink="http://www.w3.org/1999/xlink" x="0px" y="0px"
	 viewBox="0 0 512 512" style="enable-background:new 0 0 512 512;" xml:space="preserve">
<g>
	<g>
		<path d="M460.8,384c-6.323,0-12.244,1.733-17.327,4.74l-76.54-76.54V199.799l76.54-76.54c5.083,3.007,11.004,4.74,17.327,4.74
			c18.825,0,34.133-15.309,34.133-34.133S479.625,59.733,460.8,59.733c-18.825,0-34.133,15.309-34.133,34.133
			c0,6.323,1.733,12.244,4.74,17.327l-74.091,74.091l-92.782-61.855V67.187c14.707-3.798,25.6-17.175,25.6-33.054
			C290.133,15.309,274.825,0,256,0s-34.133,15.309-34.133,34.133c0,15.879,10.893,29.256,25.6,33.054v56.243l-92.782,61.855
			l-74.091-74.091c3.007-5.083,4.74-11.004,4.74-17.327c0-18.825-15.309-34.133-34.133-34.133
			c-18.825,0-34.133,15.309-34.133,34.133S32.375,128,51.2,128c6.323,0,12.244-1.733,17.327-4.74l76.54,76.54v112.401l-76.54,76.54
			C63.444,385.733,57.523,384,51.2,384c-18.825,0-34.133,15.309-34.133,34.133c0,18.825,15.309,34.133,34.133,34.133
			c18.825,0,34.133-15.309,34.133-34.133c0-6.323-1.733-12.244-4.74-17.327l74.093-74.093l92.78,61.853v56.246
			c-14.707,3.798-25.6,17.175-25.6,33.054C221.867,496.691,237.175,512,256,512s34.133-15.309,34.133-34.133
			c0-15.879-10.893-29.256-25.6-33.054v-56.246l92.78-61.853l74.093,74.093c-3.007,5.083-4.74,11.004-4.74,17.327
			c0,18.825,15.309,34.133,34.133,34.133c18.825,0,34.133-15.309,34.133-34.133C494.933,399.309,479.625,384,460.8,384z
			 M256,373.741l-93.867-62.575V200.83L256,138.255l93.867,62.575v110.336L256,373.741z M460.8,76.8
			c9.412,0,17.067,7.654,17.067,17.067s-7.654,17.067-17.067,17.067c-9.412,0-17.067-7.654-17.067-17.067S451.388,76.8,460.8,76.8z
			 M238.933,34.133c0-9.412,7.654-17.067,17.067-17.067c9.412,0,17.067,7.654,17.067,17.067S265.412,51.2,256,51.2
			C246.588,51.2,238.933,43.546,238.933,34.133z M34.133,93.867c0-9.412,7.654-17.067,17.067-17.067
			c9.412,0,17.067,7.654,17.067,17.067s-7.654,17.067-17.067,17.067C41.788,110.933,34.133,103.279,34.133,93.867z M51.2,435.2
			c-9.412,0-17.067-7.654-17.067-17.067c0-9.412,7.654-17.067,17.067-17.067c9.412,0,17.067,7.654,17.067,17.067
			C68.267,427.546,60.612,435.2,51.2,435.2z M273.067,477.867c0,9.412-7.654,17.067-17.067,17.067
			c-9.412,0-17.067-7.654-17.067-17.067c0-9.412,7.654-17.067,17.067-17.067C265.412,460.8,273.067,468.454,273.067,477.867z
			 M460.8,435.2c-9.412,0-17.067-7.654-17.067-17.067c0-9.412,7.654-17.067,17.067-17.067c9.412,0,17.067,7.654,17.067,17.067
			C477.867,427.546,470.212,435.2,460.8,435.2z"/>
	</g>
</g>
<g>
</g>
<g>
</g>
<g>
</g>
<g>
</g>
<g>
</g>
<g>
</g>
<g>
</g>
<g>
</g>
<g>
</g>
<g>
</g>
<g>
</g>
<g>
</g>
<g>
</g>
<g>
</g>
<g>
</g>
</svg>
